<mxfile host="app.diagrams.net" modified="2022-02-12T14:52:55.005Z" agent="5.0 (Macintosh)" etag="lolJ1Kwj65CsI-9tqInO" version="16.5.6" type="github">
  <diagram id="R2lEEEUBdFMjLlhIrx00" name="Page-1">
    <mxGraphModel dx="1591" dy="426" grid="1" gridSize="10" guides="1" tooltips="1" connect="1" arrows="1" fold="1" page="1" pageScale="1" pageWidth="850" pageHeight="1100" math="0" shadow="0" extFonts="Permanent Marker^https://fonts.googleapis.com/css?family=Permanent+Marker">
      <root>
        <mxCell id="0" />
        <mxCell id="1" parent="0" />
        <mxCell id="qCh2sCk-6ouGbn59oTcN-1" value="User" style="whiteSpace=wrap;html=1;align=center;" vertex="1" parent="1">
          <mxGeometry x="70" y="100" width="100" height="40" as="geometry" />
        </mxCell>
        <mxCell id="qCh2sCk-6ouGbn59oTcN-2" value="userId" style="ellipse;whiteSpace=wrap;html=1;align=center;fontStyle=4;" vertex="1" parent="1">
          <mxGeometry x="20" y="20" width="85" height="30" as="geometry" />
        </mxCell>
        <mxCell id="qCh2sCk-6ouGbn59oTcN-5" value="" style="endArrow=none;html=1;rounded=0;entryX=0.5;entryY=1;entryDx=0;entryDy=0;exitX=0.4;exitY=0;exitDx=0;exitDy=0;exitPerimeter=0;" edge="1" parent="1" source="qCh2sCk-6ouGbn59oTcN-1" target="qCh2sCk-6ouGbn59oTcN-2">
          <mxGeometry width="50" height="50" relative="1" as="geometry">
            <mxPoint x="290" y="250" as="sourcePoint" />
            <mxPoint x="340" y="200" as="targetPoint" />
          </mxGeometry>
        </mxCell>
        <mxCell id="qCh2sCk-6ouGbn59oTcN-6" value="email" style="ellipse;whiteSpace=wrap;html=1;align=center;" vertex="1" parent="1">
          <mxGeometry x="200" y="230" width="80" height="30" as="geometry" />
        </mxCell>
        <mxCell id="qCh2sCk-6ouGbn59oTcN-7" value="password" style="ellipse;whiteSpace=wrap;html=1;align=center;" vertex="1" parent="1">
          <mxGeometry x="200" y="270" width="80" height="30" as="geometry" />
        </mxCell>
        <mxCell id="qCh2sCk-6ouGbn59oTcN-8" value="addressState" style="ellipse;whiteSpace=wrap;html=1;align=center;" vertex="1" parent="1">
          <mxGeometry x="200" y="310" width="80" height="30" as="geometry" />
        </mxCell>
        <mxCell id="qCh2sCk-6ouGbn59oTcN-9" value="email" style="ellipse;whiteSpace=wrap;html=1;align=center;" vertex="1" parent="1">
          <mxGeometry x="200" y="20" width="80" height="30" as="geometry" />
        </mxCell>
        <mxCell id="qCh2sCk-6ouGbn59oTcN-11" value="username" style="ellipse;whiteSpace=wrap;html=1;align=center;" vertex="1" parent="1">
          <mxGeometry x="110" y="20" width="80" height="30" as="geometry" />
        </mxCell>
        <mxCell id="qCh2sCk-6ouGbn59oTcN-12" value="userContactInfo" style="whiteSpace=wrap;html=1;align=center;" vertex="1" parent="1">
          <mxGeometry x="70" y="290" width="100" height="40" as="geometry" />
        </mxCell>
        <mxCell id="qCh2sCk-6ouGbn59oTcN-14" value="contactInfoId" style="ellipse;whiteSpace=wrap;html=1;align=center;fontStyle=4;" vertex="1" parent="1">
          <mxGeometry y="210" width="85" height="30" as="geometry" />
        </mxCell>
        <mxCell id="qCh2sCk-6ouGbn59oTcN-15" value="" style="endArrow=none;html=1;rounded=0;entryX=0.5;entryY=1;entryDx=0;entryDy=0;exitX=0.5;exitY=0;exitDx=0;exitDy=0;" edge="1" parent="1" target="qCh2sCk-6ouGbn59oTcN-14" source="qCh2sCk-6ouGbn59oTcN-12">
          <mxGeometry width="50" height="50" relative="1" as="geometry">
            <mxPoint x="90" y="290" as="sourcePoint" />
            <mxPoint x="320" y="390" as="targetPoint" />
          </mxGeometry>
        </mxCell>
        <mxCell id="qCh2sCk-6ouGbn59oTcN-17" value="" style="endArrow=none;html=1;rounded=0;entryX=0.5;entryY=1;entryDx=0;entryDy=0;" edge="1" parent="1">
          <mxGeometry width="50" height="50" relative="1" as="geometry">
            <mxPoint x="120" y="290" as="sourcePoint" />
            <mxPoint x="132.5" y="240" as="targetPoint" />
          </mxGeometry>
        </mxCell>
        <mxCell id="qCh2sCk-6ouGbn59oTcN-18" value="userId" style="ellipse;whiteSpace=wrap;html=1;align=center;" vertex="1" parent="1">
          <mxGeometry x="100" y="210" width="85" height="30" as="geometry" />
        </mxCell>
        <mxCell id="qCh2sCk-6ouGbn59oTcN-19" value="addressCity" style="ellipse;whiteSpace=wrap;html=1;align=center;" vertex="1" parent="1">
          <mxGeometry x="200" y="350" width="80" height="30" as="geometry" />
        </mxCell>
        <mxCell id="qCh2sCk-6ouGbn59oTcN-20" value="addressPostCode" style="ellipse;whiteSpace=wrap;html=1;align=center;" vertex="1" parent="1">
          <mxGeometry x="80" y="350" width="110" height="30" as="geometry" />
        </mxCell>
        <mxCell id="qCh2sCk-6ouGbn59oTcN-21" value="addressStreet" style="ellipse;whiteSpace=wrap;html=1;align=center;" vertex="1" parent="1">
          <mxGeometry x="-10" y="350" width="80" height="30" as="geometry" />
        </mxCell>
      </root>
    </mxGraphModel>
  </diagram>
</mxfile>
